<svg id="icons" xmlns="http://www.w3.org/2000/svg" xmlns:xlink="http://www.w3.org/1999/xlink" viewBox="0 0 104 104"><defs><style>.cls-1{fill:#212833;}.cls-2{fill:url(#Dégradé_sans_nom_13);}.cls-3{fill:none;}</style><linearGradient id="Dégradé_sans_nom_13" x1="58.12" y1="93.8" x2="80.81" y2="71.1" gradientUnits="userSpaceOnUse"><stop offset="0" stop-color="#f0b90b"/><stop offset="0.28" stop-color="#f1bc0f"/><stop offset="0.57" stop-color="#f4c41c"/><stop offset="0.86" stop-color="#f8d230"/><stop offset="0.99" stop-color="#fbda3c"/></linearGradient></defs><title>No records - 104x104 - light bg</title><path class="cls-1" d="M22,92H19.5V89.47H22Zm0-5.53H19.5V83.94H22Zm0-5.53H19.5V78.4H22Zm0-5.53H19.5V72.87H22Zm0-5.54H19.5V67.34H22Zm0-5.53H19.5V61.81H22Zm0-5.53H19.5V56.28H22Zm0-5.53H19.5V50.74H22Zm0-5.53H19.5V45.21H22Zm0-5.54H19.5V39.68H22Zm0-5.53H19.5V34.15H22Zm0-5.53H19.5V28.61H22Zm0-5.53H19.5V23.08H22Zm0-5.54H19.5V17.55H22Zm0-5.53H19.5V12H22Z"/><rect class="cls-1" x="19.5" y="6.5" width="2.5" height="2.5"/><path class="cls-1" d="M67.08,9H64.51V6.5h2.57Zm5.6,0H70.12V6.5h2.56ZM61.44,9H58.88V6.5h2.56ZM55.81,9H53.25V6.5h2.56ZM50.17,9H47.61V6.5h2.56ZM44.54,9H42V6.5h2.56ZM38.9,9H36.34V6.5H38.9ZM33.27,9H30.71V6.5h2.56ZM27.64,9H25.07V6.5h2.57Z"/><path class="cls-1" d="M80.32,16.44l-1.8-1.8,1.77-1.77,1.8,1.8Zm-4-4-1.8-1.8,1.77-1.77,1.8,1.8Z"/><rect class="cls-1" x="70.15" y="18.36" width="2.5" height="2.5"/><rect class="cls-1" x="70.15" y="12.84" width="2.5" height="2.5"/><rect class="cls-1" x="75.86" y="18.36" width="2.5" height="2.5"/><circle class="cls-2" cx="69.46" cy="82.45" r="16.05"/><polygon class="cls-1" points="82 67.78 82 65.27 84.5 65.27 84.5 67.77 82 67.78"/><path class="cls-1" d="M82,62.58V60.06h2.5v2.5Zm0-5.22V54.84h2.5v2.5Zm0-5.21V49.63h2.5v2.5Zm0-5.21V44.42h2.5v2.5Zm0-5.21V39.21h2.5v2.5Zm0-5.22V34h2.5v2.5Zm0-5.21V28.78h2.5v2.5Zm0-5.21V23.57h2.5v2.5Z"/><polygon class="cls-1" points="82 20.87 82 18.36 84.5 18.36 84.5 20.86 82 20.87"/><polygon class="cls-1" points="54.46 97.5 51.95 97.5 51.95 95 54.45 95 54.46 97.5"/><path class="cls-1" d="M49.06,97.5H46.54V95H49Zm-5.41,0H41.13V95h2.5Zm-5.41,0H35.72V95h2.5Zm-5.41,0H30.31V95h2.5Zm-5.41,0H24.9V95h2.5Z"/><polygon class="cls-1" points="22.01 97.5 19.5 97.5 19.5 95 22 95 22.01 97.5"/><rect class="cls-1" x="68.21" y="89.5" width="2.5" height="2.5"/><rect class="cls-1" x="68.21" y="72.9" width="2.5" height="14.1"/><rect class="cls-3" width="104" height="104"/></svg>